Coordinates
version=1
nRows=14
nColumns=63
inDegrees=yes

Units are S.I. units (second, meters, Newtons, ...)
If the header above contains a line with 'inDegrees', this indicates whether rotational values are in degrees (yes) or radians (no).

endheader
time	pelvis_tilt	pelvis_list	pelvis_rotation	pelvis_tx	pelvis_ty	pelvis_tz	hip_flexion_r	hip_adduction_r	hip_rotation_r	knee_angle_r	knee_angle_r_beta	ankle_angle_r	subtalar_angle_r	mtp_angle_r	hip_flexion_l	hip_adduction_l	hip_rotation_l	knee_angle_l	knee_angle_l_beta	ankle_angle_l	subtalar_angle_l	mtp_angle_l	L5_S1_Flex_Ext	L5_S1_Lat_Bending	L5_S1_axial_rotation	L4_L5_Flex_Ext	L4_L5_Lat_Bending	L4_L5_axial_rotation	L3_L4_Flex_Ext	L3_L4_Lat_Bending	L3_L4_axial_rotation	L2_L3_Flex_Ext	L2_L3_Lat_Bending	L2_L3_axial_rotation	L1_L2_Flex_Ext	L1_L2_Lat_Bending	L1_L2_axial_rotation	L1_T12_Flex_Ext	L1_T12_Lat_Bending	L1_T12_axial_rotation	Abs_r3	Abs_r2	Abs_r1	Abs_t1	Abs_t2	neck_flexion	neck_bending	neck_rotation	arm_flex_r	arm_add_r	arm_rot_r	elbow_flex_r	pro_sup_r	wrist_flex_r	wrist_dev_r	arm_flex_l	arm_add_l	arm_rot_l	elbow_flex_l	pro_sup_l	wrist_flex_l	wrist_dev_l
0.583333	2.627332	4.081188	97.908988	0.093373	0.816278	0.801417	-1.572923	-2.195771	-12.849884	9.085775	0.158577	23.677931	15.749426	0.000000	-1.377712	1.178307	-1.374422	8.743003	0.152594	19.329627	9.697136	0.000000	0.124951	0.006549	-1.134101	0.232046	0.008710	-1.204982	0.205282	0.015922	-1.204982	0.142806	0.015922	-0.992338	0.116029	0.013354	-0.921457	0.071397	0.010144	-0.850576	0.892512	0.074080	-6.307529	0.000000	0.000000	-6.255849	13.868242	2.951446	37.938855	4.680611	71.669559	108.020726	54.805576	-2.467403	24.707258	38.015554	-9.198350	65.417165	109.821731	64.699085	10.649021	20.296117
0.600000	2.819360	4.177592	98.236518	0.092716	0.816615	0.802089	-1.730045	-1.974824	-13.274315	8.965137	0.156471	23.542952	15.813709	0.000000	-1.327264	0.944976	-1.141408	8.896742	0.155277	19.387738	9.968794	0.000000	0.118880	0.037492	-1.121015	0.220772	0.049864	-1.191079	0.195308	0.091158	-1.191079	0.135868	0.091158	-0.980888	0.110392	0.076454	-0.910825	0.067928	0.058075	-0.840761	0.849146	0.424117	-6.234750	0.000000	0.000000	-6.550990	13.733416	2.793249	39.060883	4.132347	71.238039	108.555154	52.544110	-1.532694	24.492495	39.272377	-8.337632	65.724132	109.850378	68.375639	11.276502	21.008387
0.616667	3.029338	4.240874	98.557551	0.092094	0.816771	0.802783	-1.825791	-1.743671	-13.676523	8.874085	0.154882	23.431021	15.870024	0.000000	-1.233034	0.696817	-0.875200	9.050681	0.157964	19.458023	10.147268	0.000000	0.112717	0.074600	-1.097582	0.209327	0.099218	-1.166180	0.185183	0.181383	-1.166180	0.128825	0.181383	-0.960384	0.104669	0.152125	-0.891785	0.064407	0.115556	-0.823186	0.805128	0.843892	-6.104419	0.000000	0.000000	-6.844064	13.210205	2.790859	40.343468	3.593422	70.827175	109.292488	48.421968	-0.550024	24.245653	40.434250	-7.347709	65.727530	110.026235	72.012956	11.939636	21.216610
0.633333	3.227956	4.283909	98.857992	0.091563	0.816829	0.803441	-1.881205	-1.529376	-14.044355	8.807788	0.153725	23.333541	15.920614	0.000000	-1.126777	0.463695	-0.569911	9.187104	0.160345	19.504312	10.201908	0.000000	0.105506	0.112842	-1.064520	0.195935	0.150079	-1.131052	0.173335	0.274363	-1.131052	0.120583	0.274363	-0.931455	0.097973	0.230107	-0.864922	0.060286	0.174792	-0.798390	0.753617	1.276487	-5.920540	0.000000	0.000000	-7.203336	12.402124	2.926172	41.762169	3.080688	70.499982	110.186389	43.440264	0.277410	23.892672	41.485364	-6.325158	65.500229	110.339992	75.294616	12.743268	21.172794
0.650000	3.398128	4.312772	99.126469	0.091159	0.816864	0.804049	-1.908403	-1.346062	-14.348515	8.757086	0.152840	23.234202	15.954179	0.000000	-1.019576	0.258687	-0.293449	9.303378	0.162375	19.526531	10.223451	0.000000	0.097291	0.148230	-1.025683	0.180678	0.197146	-1.089789	0.159839	0.360406	-1.089789	0.111193	0.360406	-0.897473	0.090344	0.302271	-0.833368	0.055592	0.229608	-0.769263	0.694937	1.676808	-5.704544	0.000000	0.000000	-7.658628	11.405686	3.147042	43.248579	2.612909	70.269525	111.141689	38.133143	0.963327	23.541358	42.408112	-5.360766	65.138666	110.763570	78.158561	13.557263	21.230240
0.666667	3.554563	4.347153	99.344860	0.090902	0.816964	0.804624	-1.919462	-1.176387	-14.582698	8.729192	0.152353	23.115990	15.980713	0.000000	-0.928280	0.069465	0.000892	9.402058	0.164097	19.526010	10.136797	0.000000	0.087695	0.183671	-0.990358	0.162858	0.244282	-1.052255	0.144074	0.446578	-1.052255	0.100226	0.446578	-0.866563	0.081433	0.374542	-0.804666	0.050109	0.284506	-0.742769	0.626395	2.077723	-5.508074	0.000000	0.000000	-8.290001	10.117445	3.530870	44.764964	2.190922	70.242304	112.040929	32.674777	1.338015	23.059865	43.212170	-4.563482	64.765809	111.189743	80.225577	14.411364	21.345505
0.683333	3.654063	4.397317	99.520995	0.090806	0.817209	0.805175	-1.936959	-1.058841	-14.724146	8.712914	0.152069	22.979112	15.975261	0.000000	-0.872040	-0.066024	0.254111	9.476894	0.165403	19.509302	10.065447	0.000000	0.075279	0.209633	-0.961006	0.139801	0.278811	-1.021069	0.123676	0.509701	-1.021069	0.086036	0.509701	-0.840880	0.069904	0.427483	-0.780817	0.043014	0.324721	-0.720754	0.537710	2.371406	-5.344826	0.000000	0.000000	-9.065376	8.825071	3.949837	46.173444	1.792227	70.335697	112.819319	27.570294	1.434714	22.426114	43.881547	-3.948835	64.446476	111.523699	82.179285	15.229667	21.557740
0.700000	3.701462	4.462916	99.660812	0.090879	0.817620	0.805724	-1.964090	-0.986665	-14.786808	8.698535	0.151818	22.823980	15.956704	0.000000	-0.852430	-0.152889	0.457785	9.521116	0.166175	19.484608	10.032808	0.000000	0.060866	0.226050	-0.940732	0.113034	0.300647	-0.999527	0.099996	0.549618	-0.999527	0.069563	0.549618	-0.823140	0.056520	0.460962	-0.764344	0.034779	0.350152	-0.705549	0.434758	2.557125	-5.232067	0.000000	0.000000	-9.939203	7.559818	4.388727	47.309283	1.447852	70.378555	113.326573	23.445981	1.670304	21.901838	44.462596	-3.568899	64.336285	111.725325	83.715702	15.738701	21.683152
0.716667	3.705381	4.538805	99.763694	0.091079	0.818181	0.806258	-1.996930	-0.953481	-14.778399	8.681294	0.151517	22.656664	15.937623	0.000000	-0.864712	-0.197840	0.600655	9.536001	0.166435	19.461098	10.053512	0.000000	0.045706	0.234031	-0.931754	0.084880	0.311261	-0.989988	0.075090	0.569023	-0.989988	0.052237	0.569023	-0.815285	0.042442	0.477236	-0.757050	0.026116	0.362514	-0.698815	0.326470	2.647404	-5.182135	0.000000	0.000000	-10.858796	6.365776	4.824138	48.115264	1.159907	70.345875	113.499303	20.516503	2.144188	21.552113	44.926216	-3.433878	64.404350	111.844200	84.774950	15.858909	21.757462
0.733333	3.681656	4.614899	99.832803	0.091331	0.818849	0.806744	-2.028590	-0.947339	-14.714068	8.654356	0.151047	22.485006	15.926506	0.000000	-0.899430	-0.212001	0.686519	9.522186	0.166194	19.441264	10.111972	0.000000	0.031292	0.236496	-0.933147	0.058112	0.314539	-0.991468	0.051409	0.575015	-0.991468	0.035763	0.575015	-0.816503	0.029058	0.482262	-0.758182	0.017880	0.366332	-0.699860	0.223514	2.675285	-5.189882	0.000000	0.000000	-11.758200	5.265538	5.245692	48.579390	0.919989	70.280448	113.388438	18.298745	2.559727	21.515577	45.229285	-3.506229	64.545088	111.963986	85.278966	15.671039	21.833418
0.750000	3.639939	4.678156	99.872031	0.091611	0.819576	0.807134	-2.051174	-0.960976	-14.604367	8.613869	0.150340	22.322631	15.928794	0.000000	-0.948607	-0.202291	0.705094	9.473970	0.165352	19.424339	10.192860	0.000000	0.019527	0.234475	-0.940633	0.036263	0.311851	-0.999423	0.032080	0.570102	-0.999423	0.022317	0.570102	-0.823054	0.018132	0.478141	-0.764264	0.011158	0.363201	-0.705475	0.139477	2.652425	-5.231518	0.000000	0.000000	-12.583285	4.336394	5.623861	48.711650	0.745236	70.201136	113.066949	16.740049	2.861542	21.796833	45.349229	-3.729962	64.678949	112.130874	85.083917	15.205454	21.811198
0.766667	3.581997	4.724604	99.888177	0.091885	0.820333	0.807370	-2.068512	-0.993186	-14.471202	8.557683	0.149360	22.177194	15.948712	0.000000	-1.012420	-0.168404	0.686009	9.390158	0.163889	19.406318	10.256108	0.000000	0.011330	0.228963	-0.951407	0.021042	0.304520	-1.010870	0.018615	0.556699	-1.010870	0.012949	0.556699	-0.832481	0.010521	0.466900	-0.773018	0.006474	0.354663	-0.713555	0.080932	2.590070	-5.291442	0.000000	0.000000	-13.287904	3.599292	5.956759	48.535275	0.664816	70.125241	112.647775	15.825664	3.030233	22.375294	45.275184	-4.038060	64.734669	112.367929	84.229455	14.527772	21.668819
0.783333	3.505229	4.752092	99.871899	0.092172	0.821089	0.807426	-2.080185	-1.047813	-14.314897	8.489860	0.148176	22.061675	15.990059	0.000000	-1.092705	-0.111218	0.546181	9.267615	0.161750	19.402281	10.395075	0.000000	0.007449	0.219179	-0.958506	0.013833	0.291508	-1.018413	0.012237	0.532911	-1.018413	0.008513	0.532911	-0.838693	0.006917	0.446950	-0.778786	0.004256	0.339508	-0.718880	0.053204	2.479395	-5.330924	0.000000	0.000000	-13.835479	3.111071	6.181937	48.088276	0.684076	70.063023	112.268358	15.677915	3.166179	23.154055	45.036581	-4.371081	64.726078	112.630676	82.826366	13.688937	21.355746
0.800000	3.411000	4.767896	99.842816	0.092447	0.821827	0.807319	-2.099143	-1.120581	-14.163592	8.407964	0.146747	21.981316	16.049504	0.000000	-1.193526	-0.034047	0.307963	9.108317	0.158970	19.416888	10.614153	0.000000	0.007084	0.205470	-0.964558	0.013157	0.273275	-1.024842	0.011639	0.499579	-1.024842	0.008097	0.499579	-0.843988	0.006579	0.418994	-0.783703	0.004048	0.318272	-0.723418	0.050604	2.324313	-5.364580	0.000000	0.000000	-14.220934	2.912796	6.319804	47.408595	0.801194	70.005153	112.028614	16.117848	3.428206	24.041306	44.658843	-4.694787	64.653739	112.846440	81.214105	12.954855	20.927045
